<?xml version="1.0" encoding="UTF-8"?>
<svg id="Layer_2" data-name="Layer 2" xmlns="http://www.w3.org/2000/svg" xmlns:xlink="http://www.w3.org/1999/xlink" viewBox="0 0 1440 540">
  <defs>
    <style>
      .cls-1 {
        fill: #fff;
      }

      .cls-2 {
        fill: none;
      }

      .cls-3 {
        fill: url(#About_Us);
        isolation: isolate;
        opacity: .25;
      }

      .cls-4 {
        fill: #d9d9d9;
      }
    </style>
    <pattern id="About_Us" data-name="About Us" x="0" y="0" width="120" height="120" patternTransform="translate(-584.85 -15470.35) scale(1 -1)" patternUnits="userSpaceOnUse" viewBox="0 0 120 120">
      <g>
        <rect class="cls-2" width="120" height="120"/>
        <g>
          <rect class="cls-2" width="120" height="120"/>
          <path class="cls-1" d="M141.68,11c-1.53-1,5.83-4.92,5.83-4.92l-.91-1.63s-11.16,4.97-20.87.36c0,0-.93,8.33-4.56,12.61-2.14-1.89-7.47-7.2-7.27-12.97,0,0-7.9,4.51-20.8.64l-.75,1.55s6.17,2.49,6.22,4.31c.05,1.83-7.36-2-7.36-2l-.82,1.68s10.43,6.36,12.15,16.96c0,0,7.59-4.08,13.2-3.37-.48,1.95-2.82,10.35-8.64,12.95,0,0,7.54,5.11,9.75,18.39h1.72s-.49-6.64,1.13-7.49c1.62-.85,1.45,7.49,1.45,7.49h1.87s1.1-12.17,9.87-18.39c0,0-7.88-5.63-9.14-11.32,2.95-.69,10.06-1.89,14.57,1.46,0,0,.78-9.06,11.29-17.48l-.84-1.5s-5.56,3.67-7.09,2.67h0ZM121.22,24.11l.29.52c-.18.94-.6,2.4-1.51,2.61-.83.19-1.3-1.12-1.54-2.17.06.03.11.06.16.09l.87-1.78s-2.67-1.62-2.35-2.98c.13-.59.87-.68,1.67-.59l.76,1.34s2.84-1.27,3.79-.24c.94,1.03-2.14,3.2-2.14,3.2Z"/>
          <path class="cls-1" d="M81.68-19c-1.53-1,5.83-4.92,5.83-4.92l-.91-1.63s-11.16,4.97-20.87.36c0,0-.93,8.33-4.56,12.61-2.14-1.89-7.47-7.2-7.27-12.97,0,0-7.9,4.51-20.8.64l-.75,1.55s6.17,2.49,6.22,4.31c.05,1.83-7.36-2-7.36-2l-.82,1.68s10.43,6.36,12.15,16.96c0,0,7.59-4.08,13.2-3.37-.48,1.95-2.82,10.35-8.64,12.95,0,0,7.54,5.11,9.75,18.39h1.72s-.49-6.64,1.13-7.49c1.62-.85,1.45,7.49,1.45,7.49h1.87s1.1-12.17,9.87-18.39c0,0-7.88-5.63-9.14-11.32,2.95-.69,10.06-1.89,14.57,1.46,0,0,.78-9.06,11.29-17.48l-.84-1.5s-5.56,3.67-7.09,2.67h0ZM61.22-5.89l.29.52c-.18.94-.6,2.4-1.51,2.61-.83.19-1.3-1.12-1.54-2.17.06.03.11.06.16.09l.87-1.78s-2.67-1.62-2.35-2.98c.13-.59.87-.68,1.67-.59l.76,1.34s2.84-1.27,3.79-.24c.94,1.03-2.14,3.2-2.14,3.2h0Z"/>
          <path class="cls-1" d="M21.68,11c-1.53-1,5.83-4.92,5.83-4.92l-.91-1.63s-11.16,4.97-20.87.36c0,0-.93,8.33-4.56,12.61-2.14-1.89-7.47-7.2-7.27-12.97,0,0-7.9,4.51-20.8.64l-.75,1.55s6.17,2.49,6.22,4.31c.05,1.83-7.36-2-7.36-2l-.82,1.68s10.43,6.36,12.15,16.96c0,0,7.59-4.08,13.2-3.37-.48,1.95-2.82,10.35-8.64,12.95,0,0,7.54,5.11,9.75,18.39h1.72s-.49-6.64,1.13-7.49,1.45,7.49,1.45,7.49h1.87s1.1-12.17,9.87-18.39c0,0-7.88-5.63-9.14-11.32,2.95-.69,10.06-1.89,14.57,1.46,0,0,.78-9.06,11.29-17.48l-.84-1.5s-5.56,3.67-7.09,2.67ZM1.22,24.11l.29.52c-.18.94-.6,2.4-1.51,2.61-.83.19-1.3-1.12-1.54-2.17.06.03.11.06.16.09l.87-1.78s-2.67-1.62-2.35-2.98c.13-.59.87-.68,1.67-.59l.76,1.34s2.84-1.27,3.79-.24c.94,1.03-2.14,3.2-2.14,3.2Z"/>
          <path class="cls-1" d="M141.68,71c-1.53-1,5.83-4.92,5.83-4.92l-.91-1.63s-11.16,4.97-20.87.36c0,0-.93,8.33-4.56,12.61-2.14-1.89-7.47-7.2-7.27-12.97,0,0-7.9,4.51-20.8.64l-.75,1.55s6.17,2.49,6.22,4.31c.05,1.83-7.36-2-7.36-2l-.82,1.68s10.43,6.36,12.15,16.96c0,0,7.59-4.08,13.2-3.37-.48,1.95-2.82,10.35-8.64,12.95,0,0,7.54,5.11,9.75,18.39h1.72s-.49-6.64,1.13-7.49c1.62-.85,1.45,7.49,1.45,7.49h1.87s1.1-12.17,9.87-18.39c0,0-7.88-5.63-9.14-11.32,2.95-.69,10.06-1.89,14.57,1.46,0,0,.78-9.06,11.29-17.48l-.84-1.5s-5.56,3.67-7.09,2.67h0ZM121.22,84.11l.29.52c-.18.94-.6,2.4-1.51,2.61-.83.19-1.3-1.12-1.54-2.17.06.03.11.06.16.09l.87-1.78s-2.67-1.62-2.35-2.98c.13-.59.87-.68,1.67-.59l.76,1.34s2.84-1.27,3.79-.24c.94,1.03-2.14,3.2-2.14,3.2Z"/>
          <path class="cls-1" d="M81.68,41c-1.53-1,5.83-4.92,5.83-4.92l-.91-1.63s-11.16,4.97-20.87.36c0,0-.93,8.33-4.56,12.61-2.14-1.89-7.47-7.2-7.27-12.97,0,0-7.9,4.51-20.8.64l-.75,1.55s6.17,2.49,6.22,4.31c.05,1.83-7.36-2-7.36-2l-.82,1.68s10.43,6.36,12.15,16.96c0,0,7.59-4.08,13.2-3.37-.48,1.95-2.82,10.35-8.64,12.95,0,0,7.54,5.11,9.75,18.39h1.72s-.49-6.64,1.13-7.49c1.62-.85,1.45,7.49,1.45,7.49h1.87s1.1-12.17,9.87-18.39c0,0-7.88-5.63-9.14-11.32,2.95-.69,10.06-1.89,14.57,1.46,0,0,.78-9.06,11.29-17.48l-.84-1.5s-5.56,3.67-7.09,2.67ZM61.22,54.11l.29.52c-.18.94-.6,2.4-1.51,2.61-.83.19-1.3-1.12-1.54-2.17.06.03.11.06.16.09l.87-1.78s-2.67-1.62-2.35-2.98c.13-.59.87-.68,1.67-.59l.76,1.34s2.84-1.27,3.79-.24c.94,1.03-2.14,3.2-2.14,3.2Z"/>
          <path class="cls-1" d="M21.68,71c-1.53-1,5.83-4.92,5.83-4.92l-.91-1.63s-11.16,4.97-20.87.36c0,0-.93,8.33-4.56,12.61-2.14-1.89-7.47-7.2-7.27-12.97,0,0-7.9,4.51-20.8.64l-.75,1.55s6.17,2.49,6.22,4.31c.05,1.83-7.36-2-7.36-2l-.82,1.68s10.43,6.36,12.15,16.96c0,0,7.59-4.08,13.2-3.37-.48,1.95-2.82,10.35-8.64,12.95,0,0,7.54,5.11,9.75,18.39h1.72s-.49-6.64,1.13-7.49,1.45,7.49,1.45,7.49h1.87s1.1-12.17,9.87-18.39c0,0-7.88-5.63-9.14-11.32,2.95-.69,10.06-1.89,14.57,1.46,0,0,.78-9.06,11.29-17.48l-.84-1.5s-5.56,3.67-7.09,2.67ZM1.22,84.11l.29.52c-.18.94-.6,2.4-1.51,2.61-.83.19-1.3-1.12-1.54-2.17.06.03.11.06.16.09l.87-1.78s-2.67-1.62-2.35-2.98c.13-.59.87-.68,1.67-.59l.76,1.34s2.84-1.27,3.79-.24c.94,1.03-2.14,3.2-2.14,3.2Z"/>
          <path class="cls-1" d="M81.68,101c-1.53-1,5.83-4.92,5.83-4.92l-.91-1.63s-11.16,4.97-20.87.36c0,0-.93,8.33-4.56,12.61-2.14-1.89-7.47-7.2-7.27-12.97,0,0-7.9,4.51-20.8.64l-.75,1.55s6.17,2.49,6.22,4.31c.05,1.83-7.36-2-7.36-2l-.82,1.68s10.43,6.36,12.15,16.96c0,0,7.59-4.08,13.2-3.37-.48,1.95-2.82,10.35-8.64,12.95,0,0,7.54,5.11,9.75,18.39h1.72s-.49-6.64,1.13-7.49c1.62-.85,1.45,7.49,1.45,7.49h1.87s1.1-12.17,9.87-18.39c0,0-7.88-5.63-9.14-11.32,2.95-.69,10.06-1.89,14.57,1.46,0,0,.78-9.06,11.29-17.48l-.84-1.5s-5.56,3.67-7.09,2.67ZM61.22,114.11l.29.52c-.18.94-.6,2.4-1.51,2.61-.83.19-1.3-1.12-1.54-2.17.06.03.11.06.16.09l.87-1.78s-2.67-1.62-2.35-2.98c.13-.59.87-.68,1.67-.59l.76,1.34s2.84-1.27,3.79-.24c.94,1.03-2.14,3.2-2.14,3.2Z"/>
        </g>
      </g>
    </pattern>
  </defs>
  <g id="Layer_2-2" data-name="Layer 2">
    <g>
      <rect class="cls-4" width="1440" height="540"/>
      <rect class="cls-3" width="345.34" height="540"/>
      <rect class="cls-3" x="1119.72" width="320.28" height="540"/>
    </g>
  </g>
</svg>