<?xml version="1.0" encoding="UTF-8"?>
<svg id="Layer_2" data-name="Layer 2" xmlns="http://www.w3.org/2000/svg" xmlns:xlink="http://www.w3.org/1999/xlink" viewBox="0 0 1440 540">
  <defs>
    <style>
      .cls-1 {
        opacity: .21;
      }

      .cls-1, .cls-2, .cls-3, .cls-4, .cls-5, .cls-6, .cls-7, .cls-8, .cls-9, .cls-10, .cls-11, .cls-12, .cls-13, .cls-14, .cls-15, .cls-16, .cls-17, .cls-18, .cls-19, .cls-20, .cls-21 {
        isolation: isolate;
      }

      .cls-1, .cls-2, .cls-3, .cls-4, .cls-5, .cls-6, .cls-7, .cls-8, .cls-9, .cls-10, .cls-11, .cls-13, .cls-14, .cls-15, .cls-16, .cls-17, .cls-18, .cls-19, .cls-20, .cls-21 {
        fill: #fff;
        mix-blend-mode: overlay;
      }

      .cls-2 {
        opacity: .39;
      }

      .cls-3 {
        opacity: .59;
      }

      .cls-4 {
        opacity: .53;
      }

      .cls-5 {
        opacity: .9;
      }

      .cls-22 {
        fill: none;
      }

      .cls-6 {
        opacity: .28;
      }

      .cls-7 {
        opacity: .96;
      }

      .cls-8 {
        opacity: .26;
      }

      .cls-9 {
        opacity: .5;
      }

      .cls-10 {
        opacity: .31;
      }

      .cls-11 {
        opacity: .87;
      }

      .cls-23 {
        clip-path: url(#clippath-1);
      }

      .cls-13 {
        opacity: .51;
      }

      .cls-14 {
        opacity: .25;
      }

      .cls-15 {
        opacity: .98;
      }

      .cls-16 {
        opacity: .89;
      }

      .cls-17 {
        opacity: .58;
      }

      .cls-18 {
        opacity: .88;
      }

      .cls-19 {
        opacity: .66;
      }

      .cls-24 {
        clip-path: url(#clippath-2);
      }

      .cls-20 {
        opacity: .3;
      }

      .cls-25 {
        clip-path: url(#clippath);
      }

      .cls-26 {
        fill: #d9d9d9;
      }

      .cls-21 {
        opacity: .32;
      }
    </style>
    <clipPath id="clippath">
      <rect class="cls-22" width="1440" height="540"/>
    </clipPath>
    <clipPath id="clippath-1">
      <rect class="cls-22" x="581.81" width="945.39" height="540"/>
    </clipPath>
    <clipPath id="clippath-2">
      <rect class="cls-22" x="-85.04" y="0" width="945.39" height="540"/>
    </clipPath>
  </defs>
  <g id="Layer_1-2" data-name="Layer 1">
    <g class="cls-12">
      <g id="Layer_2-2" data-name="Layer 2">
        <g id="Layer_1-2" data-name="Layer 1-2">
          <g class="cls-25">
            <g>
              <rect class="cls-22" x="-229.24" y="255.33" width="720.8" height="540.62"/>
              <rect class="cls-22" x="1181.35" y="255.51" width="720.8" height="540.63"/>
              <rect class="cls-26" y="0" width="1440.6" height="540"/>
              <g class="cls-23">
                <g>
                  <polygon class="cls-17" points="1337.43 203.02 1337.43 217.29 1323.15 217.29 1323.15 231.49 1337.43 231.49 1337.43 245.77 1351.63 245.77 1351.63 231.49 1365.91 231.49 1365.91 217.29 1351.63 217.29 1351.63 203.02 1337.43 203.02"/>
                  <polygon class="cls-18" points="1246.17 394.16 1246.17 435.79 1204.52 435.79 1204.52 477.21 1246.17 477.21 1246.17 518.84 1287.61 518.84 1287.61 477.21 1329.25 477.21 1329.25 435.79 1287.61 435.79 1287.61 394.16 1246.17 394.16"/>
                  <polygon class="cls-14" points="1181.39 129.58 1181.39 160.32 1150.63 160.32 1150.63 190.91 1181.39 190.91 1181.39 221.65 1211.98 221.65 1211.98 190.91 1242.74 190.91 1242.74 160.32 1211.98 160.32 1211.98 129.58 1181.39 129.58"/>
                  <polygon class="cls-15" points="1265.27 -8.01 1265.27 26.06 1231.17 26.06 1231.17 59.96 1265.27 59.96 1265.27 94.04 1299.18 94.04 1299.18 59.96 1333.27 59.96 1333.27 26.06 1299.18 26.06 1299.18 -8.01 1265.27 -8.01"/>
                  <polygon class="cls-9" points="1418.63 15.37 1418.63 57.53 1376.46 57.53 1376.46 99.47 1418.63 99.47 1418.63 141.62 1460.59 141.62 1460.59 99.47 1502.76 99.47 1502.76 57.53 1460.59 57.53 1460.59 15.37 1418.63 15.37"/>
                  <polygon class="cls-7" points="1058.94 139.54 1058.94 149.95 1048.52 149.95 1048.52 160.31 1058.94 160.31 1058.94 170.73 1069.31 170.73 1069.31 160.31 1079.72 160.31 1079.72 149.95 1069.31 149.95 1069.31 139.54 1058.94 139.54"/>
                  <polygon class="cls-1" points="1298.44 341.12 1298.44 363.91 1275.64 363.91 1275.64 386.58 1298.44 386.58 1298.44 409.37 1321.12 409.37 1321.12 386.58 1343.91 386.58 1343.91 363.91 1321.12 363.91 1321.12 341.12 1298.44 341.12"/>
                  <polygon class="cls-5" points="1415.57 187.76 1415.57 239.06 1364.25 239.06 1364.25 290.09 1415.57 290.09 1415.57 341.39 1466.62 341.39 1466.62 290.09 1517.94 290.09 1517.94 239.06 1466.62 239.06 1466.62 187.76 1415.57 187.76"/>
                  <polygon class="cls-8" points="1207.62 515.58 1207.62 526.57 1196.63 526.57 1196.63 537.51 1207.62 537.51 1207.62 548.51 1218.57 548.51 1218.57 537.51 1229.57 537.51 1229.57 526.57 1218.57 526.57 1218.57 515.58 1207.62 515.58"/>
                  <polygon class="cls-2" points="1308.23 424.39 1308.23 490.42 1242.17 490.42 1242.17 556.12 1308.23 556.12 1308.23 622.15 1373.94 622.15 1373.94 556.12 1440.01 556.12 1440.01 490.42 1373.94 490.42 1373.94 424.39 1308.23 424.39"/>
                  <polygon class="cls-3" points="1278.29 118.4 1278.29 146.75 1249.94 146.75 1249.94 174.95 1278.29 174.95 1278.29 203.29 1306.5 203.29 1306.5 174.95 1334.86 174.95 1334.86 146.75 1306.5 146.75 1306.5 118.4 1278.29 118.4"/>
                  <polygon class="cls-11" points="1151.82 379.53 1151.82 387.97 1143.37 387.97 1143.37 396.37 1151.82 396.37 1151.82 404.82 1160.22 404.82 1160.22 396.37 1168.67 396.37 1168.67 387.97 1160.22 387.97 1160.22 379.53 1151.82 379.53"/>
                  <polygon class="cls-21" points="1436.01 323.84 1436.01 362.57 1397.26 362.57 1397.26 401.1 1436.01 401.1 1436.01 439.83 1474.55 439.83 1474.55 401.1 1513.3 401.1 1513.3 362.57 1474.55 362.57 1474.55 323.84 1436.01 323.84"/>
                  <polygon class="cls-20" points="1404.14 397.89 1404.14 453.07 1348.94 453.07 1348.94 507.96 1404.14 507.96 1404.14 563.13 1459.06 563.13 1459.06 507.96 1514.26 507.96 1514.26 453.07 1459.06 453.07 1459.06 397.89 1404.14 397.89"/>
                  <polygon class="cls-13" points="984.65 27.15 984.65 37.64 974.16 37.64 974.16 48.07 984.65 48.07 984.65 58.56 995.08 58.56 995.08 48.07 1005.58 48.07 1005.58 37.64 995.08 37.64 995.08 27.15 984.65 27.15"/>
                  <polygon class="cls-10" points="1048.2 -35.6 1048.2 -22.59 1035.18 -22.59 1035.18 -9.66 1048.2 -9.66 1048.2 3.34 1061.13 3.34 1061.13 -9.66 1074.14 -9.66 1074.14 -22.59 1061.13 -22.59 1061.13 -35.6 1048.2 -35.6"/>
                  <polygon class="cls-19" points="1105.15 206.57 1105.15 246.33 1065.37 246.33 1065.37 285.89 1105.15 285.89 1105.15 325.65 1144.73 325.65 1144.73 285.89 1184.5 285.89 1184.5 246.33 1144.73 246.33 1144.73 206.57 1105.15 206.57"/>
                  <polygon class="cls-6" points="1368.87 107.77 1368.87 128.44 1348.19 128.44 1348.19 149.01 1368.87 149.01 1368.87 169.68 1389.44 169.68 1389.44 149.01 1410.12 149.01 1410.12 128.44 1389.44 128.44 1389.44 107.77 1368.87 107.77"/>
                  <polygon class="cls-4" points="1125.61 -1.19 1125.61 46.09 1078.31 46.09 1078.31 93.13 1125.61 93.13 1125.61 140.41 1172.67 140.41 1172.67 93.13 1219.97 93.13 1219.97 46.09 1172.67 46.09 1172.67 -1.19 1125.61 -1.19"/>
                  <polygon class="cls-16" points="1223.59 196.2 1223.59 258.83 1160.93 258.83 1160.93 321.14 1223.59 321.14 1223.59 383.76 1285.92 383.76 1285.92 321.14 1348.57 321.14 1348.57 258.83 1285.92 258.83 1285.92 196.2 1223.59 196.2"/>
                </g>
              </g>
              <g class="cls-24">
                <g>
                  <polygon class="cls-17" points="104.74 203.02 104.74 217.29 119.02 217.29 119.02 231.49 104.74 231.49 104.74 245.77 90.54 245.77 90.54 231.49 76.26 231.49 76.26 217.29 90.54 217.29 90.54 203.02 104.74 203.02"/>
                  <polygon class="cls-18" points="196 394.16 196 435.79 237.65 435.79 237.65 477.21 196 477.21 196 518.84 154.56 518.84 154.56 477.21 112.92 477.21 112.92 435.79 154.56 435.79 154.56 394.16 196 394.16"/>
                  <polygon class="cls-14" points="260.79 129.58 260.79 160.32 291.54 160.32 291.54 190.91 260.79 190.91 260.79 221.65 230.19 221.65 230.19 190.91 199.43 190.91 199.43 160.32 230.19 160.32 230.19 129.58 260.79 129.58"/>
                  <polygon class="cls-15" points="176.9 -8.01 176.9 26.06 211 26.06 211 59.96 176.9 59.96 176.9 94.04 142.99 94.04 142.99 59.96 108.91 59.96 108.91 26.06 142.99 26.06 142.99 -8.01 176.9 -8.01"/>
                  <polygon class="cls-9" points="23.54 15.37 23.54 57.53 65.71 57.53 65.71 99.47 23.54 99.47 23.54 141.62 -18.42 141.62 -18.42 99.47 -60.59 99.47 -60.59 57.53 -18.42 57.53 -18.42 15.37 23.54 15.37"/>
                  <polygon class="cls-7" points="383.23 139.54 383.23 149.95 393.65 149.95 393.65 160.31 383.23 160.31 383.23 170.73 372.87 170.73 372.87 160.31 362.45 160.31 362.45 149.95 372.87 149.95 372.87 139.54 383.23 139.54"/>
                  <polygon class="cls-1" points="143.73 341.12 143.73 363.91 166.53 363.91 166.53 386.58 143.73 386.58 143.73 409.37 121.06 409.37 121.06 386.58 98.26 386.58 98.26 363.91 121.06 363.91 121.06 341.12 143.73 341.12"/>
                  <polygon class="cls-5" points="26.6 187.76 26.6 239.06 77.92 239.06 77.92 290.09 26.6 290.09 26.6 341.39 -24.45 341.39 -24.45 290.09 -75.77 290.09 -75.77 239.06 -24.45 239.06 -24.45 187.76 26.6 187.76"/>
                  <polygon class="cls-8" points="234.55 515.58 234.55 526.57 245.54 526.57 245.54 537.51 234.55 537.51 234.55 548.51 223.6 548.51 223.6 537.51 212.6 537.51 212.6 526.57 223.6 526.57 223.6 515.58 234.55 515.58"/>
                  <polygon class="cls-2" points="133.95 424.39 133.95 490.42 200 490.42 200 556.12 133.95 556.12 133.95 622.15 68.23 622.15 68.23 556.12 2.16 556.12 2.16 490.42 68.23 490.42 68.23 424.39 133.95 424.39"/>
                  <polygon class="cls-3" points="163.88 118.4 163.88 146.75 192.24 146.75 192.24 174.95 163.88 174.95 163.88 203.29 135.67 203.29 135.67 174.95 107.31 174.95 107.31 146.75 135.67 146.75 135.67 118.4 163.88 118.4"/>
                  <polygon class="cls-11" points="290.35 379.53 290.35 387.97 298.8 387.97 298.8 396.37 290.35 396.37 290.35 404.82 281.95 404.82 281.95 396.37 273.5 396.37 273.5 387.97 281.95 387.97 281.95 379.53 290.35 379.53"/>
                  <polygon class="cls-21" points="6.16 323.84 6.16 362.57 44.91 362.57 44.91 401.1 6.16 401.1 6.16 439.83 -32.38 439.83 -32.38 401.1 -71.13 401.1 -71.13 362.57 -32.38 362.57 -32.38 323.84 6.16 323.84"/>
                  <polygon class="cls-20" points="38.03 397.89 38.03 453.07 93.23 453.07 93.23 507.96 38.03 507.96 38.03 563.13 -16.89 563.13 -16.89 507.96 -72.09 507.96 -72.09 453.07 -16.89 453.07 -16.89 397.89 38.03 397.89"/>
                  <polygon class="cls-13" points="457.52 27.15 457.52 37.64 468.02 37.64 468.02 48.07 457.52 48.07 457.52 58.56 447.09 58.56 447.09 48.07 436.6 48.07 436.6 37.64 447.09 37.64 447.09 27.15 457.52 27.15"/>
                  <polygon class="cls-10" points="393.98 -35.6 393.98 -22.59 406.99 -22.59 406.99 -9.66 393.98 -9.66 393.98 3.34 381.04 3.34 381.04 -9.66 368.03 -9.66 368.03 -22.59 381.04 -22.59 381.04 -35.6 393.98 -35.6"/>
                  <polygon class="cls-19" points="337.02 206.57 337.02 246.33 376.8 246.33 376.8 285.89 337.02 285.89 337.02 325.65 297.44 325.65 297.44 285.89 257.67 285.89 257.67 246.33 297.44 246.33 297.44 206.57 337.02 206.57"/>
                  <polygon class="cls-6" points="73.3 107.77 73.3 128.44 93.99 128.44 93.99 149.01 73.3 149.01 73.3 169.68 52.73 169.68 52.73 149.01 32.05 149.01 32.05 128.44 52.73 128.44 52.73 107.77 73.3 107.77"/>
                  <polygon class="cls-4" points="316.56 -1.19 316.56 46.09 363.86 46.09 363.86 93.13 316.56 93.13 316.56 140.41 269.5 140.41 269.5 93.13 222.2 93.13 222.2 46.09 269.5 46.09 269.5 -1.19 316.56 -1.19"/>
                  <polygon class="cls-16" points="218.58 196.2 218.58 258.83 281.24 258.83 281.24 321.14 218.58 321.14 218.58 383.76 156.26 383.76 156.26 321.14 93.6 321.14 93.6 258.83 156.26 258.83 156.26 196.2 218.58 196.2"/>
                </g>
              </g>
            </g>
          </g>
        </g>
      </g>
    </g>
  </g>
</svg>