<svg width="70" height="58" viewBox="0 0 70 58" fill="none" xmlns="http://www.w3.org/2000/svg">
<path d="M0.379688 57.2C0.379688 53.2 0.379688 49.3333 0.379688 45.6C0.513021 41.7333 0.646355 38.2 0.779688 35C1.04635 23.5333 2.84635 14.9333 6.17969 9.19999C9.51302 3.33333 15.7797 0.399996 24.9797 0.399996L27.3797 10.6C22.1797 10.7333 18.8464 12.4667 17.3797 15.8C15.913 19.1333 15.1797 23.4 15.1797 28.6H28.9797V57.2H0.379688ZM41.1797 57.2C41.1797 53.2 41.1797 49.3333 41.1797 45.6C41.313 41.7333 41.4464 38.2 41.5797 35C41.8464 23.5333 43.6464 14.9333 46.9797 9.19999C50.313 3.33333 56.5797 0.399996 65.7797 0.399996L68.1797 10.6C62.9797 10.7333 59.6464 12.4667 58.1797 15.8C56.713 19.1333 55.9797 23.4 55.9797 28.6H69.7797V57.2H41.1797Z" fill="#E42F1E"/>
</svg>
