<svg width="70" height="58" viewBox="0 0 70 58" fill="none" xmlns="http://www.w3.org/2000/svg">
<path d="M69.6203 0.800007C69.6203 4.8 69.6203 8.66667 69.6203 12.4C69.487 16.2667 69.3537 19.8 69.2203 23C68.9537 34.4667 67.1537 43.0667 63.8203 48.8C60.487 54.6667 54.2203 57.6 45.0203 57.6L42.6203 47.4C47.8203 47.2667 51.1537 45.5333 52.6203 42.2C54.087 38.8667 54.8203 34.6 54.8203 29.4L41.0203 29.4L41.0203 0.800005L69.6203 0.800007ZM28.8203 0.800004C28.8203 4.8 28.8203 8.66666 28.8203 12.4C28.687 16.2667 28.5537 19.8 28.4203 23C28.1537 34.4667 26.3537 43.0667 23.0203 48.8C19.687 54.6667 13.4203 57.6 4.22032 57.6L1.82032 47.4C7.02032 47.2667 10.3537 45.5333 11.8203 42.2C13.287 38.8667 14.0203 34.6 14.0203 29.4L0.220315 29.4L0.220318 0.800001L28.8203 0.800004Z" fill="#E42F1E"/>
</svg>
