<svg width="108" height="85" viewBox="0 0 108 85" fill="none" xmlns="http://www.w3.org/2000/svg">
<path d="M107.94 25.6681L107.907 25.4458C107.846 25.1678 107.739 24.8993 107.588 24.649L91.6728 2.201C91.6728 2.201 89.6432 0 89.1609 0H21.3404L0.943939 23.8875L0.702799 24.1076L0.670144 24.211C0.498195 24.4537 0.356708 24.712 0.24815 24.9814L0.165258 25.1949C-0.0657202 25.8787 -0.0543332 26.6078 0.197912 27.2858L0.293364 27.5257C0.422307 27.8104 0.579717 28.0686 0.765596 28.3005L50.0762 83.0327L50.1767 83.1582C50.4278 83.4429 50.741 83.6997 51.1161 83.9286L51.4025 84.0848C51.6838 84.2389 51.9777 84.3622 52.4047 84.4986L52.6835 84.5801C53.1658 84.6879 53.5853 84.7385 53.9947 84.7385C54.4092 84.7385 54.8136 84.6901 55.3587 84.5668L55.6927 84.4634C56.0193 84.3622 56.3132 84.2367 56.6673 84.0452L56.8884 83.9242C57.2677 83.6887 57.5716 83.4333 57.7399 83.233L107.113 28.4435C107.55 27.933 107.834 27.3355 107.942 26.7047L107.98 26.4208L108 26.1963L107.94 25.6681ZM81.4646 24.211L88.4928 13.0673L95.516 24.211H81.4646ZM77.2496 30.814H93.9235L66.1321 61.661L77.2496 30.814ZM73.1251 20.8699L62.9747 8.804H80.7336L73.1251 20.8699ZM40.6115 30.814H67.3855L53.9947 67.9603L40.6115 30.814ZM43.2665 24.211L53.9947 11.454L64.7229 24.211H43.2665ZM35.7108 19.8706L31.0588 8.804H45.0173L35.7108 19.8706ZM41.8624 61.6632L14.0685 30.814H30.7448L41.8624 61.6632ZM23.0107 13.1444L27.6653 24.211H13.7043L23.0107 13.1444Z" fill="#E42F1E"/>
</svg>
