<?xml version="1.0" encoding="UTF-8"?>
<svg id="Layer_2" data-name="Layer 2" xmlns="http://www.w3.org/2000/svg" viewBox="0 0 516.91 177.28">
  <defs>
    <style>
      .cls-1 {
        fill: #e33126;
      }

      .cls-2 {
        fill: #fff;
      }
    </style>
  </defs>
  <g id="Layer_2-2" data-name="Layer 2">
    <g>
      <path class="cls-1" d="M68.58,164.6v10.51C29.28,165.97,0,130.72,0,88.64c0-10.03,1.66-19.67,4.74-28.67h9.7c-3.25,8.67-5.03,18.06-5.03,27.87,0,36.85,25.12,67.83,59.17,76.76Z"/>
      <path class="cls-2" d="M84.03,0v177.28c-2.71-.14-5.39-.4-8.04-.79V9.51c-2.51.4-4.99.93-7.41,1.57-21.89,5.73-40.09,20.59-50.29,40.25h-10.09C19.55,26.85,41.72,8.42,68.58,2.17c2.43-.56,4.91-1.03,7.41-1.38,2.65-.39,5.33-.65,8.04-.79Z"/>
      <path class="cls-2" d="M177.54,88.64c0,44.7-33.04,81.68-76.02,87.86-2.64.38-5.33.65-8.04.78V0c2.71.13,5.4.4,8.04.78,30.17,4.34,55.44,23.85,67.82,50.55h-10.09c-11.34-21.85-32.55-37.76-57.73-41.83v156.68c37.77-6.1,66.61-38.85,66.61-78.34,0-9.81-1.78-19.2-5.03-27.87h9.7c3.08,9,4.74,18.64,4.74,28.67h0Z"/>
      <g>
        <path class="cls-2" d="M210.09,121.1v2.52h-5.01v16.29h-3.09v-16.29h-5.04v-2.52h13.13Z"/>
        <path class="cls-2" d="M223.96,125.48c.9.48,1.6,1.21,2.11,2.17s.77,2.11.77,3.46v8.8h-3.06v-8.34c0-1.33-.34-2.36-1-3.07-.67-.71-1.58-1.07-2.73-1.07s-2.07.36-2.75,1.07c-.68.71-1.01,1.74-1.01,3.07v8.34h-3.09v-20.03h3.09v6.85c.52-.63,1.19-1.12,1.99-1.46s1.68-.51,2.64-.51c1.14,0,2.15.24,3.04.73h0Z"/>
        <path class="cls-2" d="M244.33,133.6h-11.39c.09,1.19.53,2.14,1.33,2.87.8.73,1.77,1.08,2.92,1.08,1.66,0,2.83-.69,3.52-2.08h3.33c-.45,1.37-1.27,2.5-2.45,3.37-1.19.87-2.65,1.31-4.4,1.31-1.43,0-2.7-.32-3.83-.96-1.13-.64-2.01-1.54-2.65-2.71s-.96-2.51-.96-4.05.31-2.89.94-4.05c.62-1.16,1.5-2.06,2.63-2.69,1.13-.63,2.43-.94,3.88-.94s2.66.3,3.76.92,1.96,1.47,2.57,2.58c.62,1.11.92,2.39.92,3.83,0,.56-.04,1.07-.11,1.51h0ZM241.22,131.12c-.02-1.14-.42-2.05-1.22-2.74s-1.78-1.03-2.95-1.03c-1.07,0-1.97.34-2.74,1.01s-1.21,1.59-1.36,2.75h8.26Z"/>
        <path class="cls-2" d="M266.99,129.41c-.45.85-1.17,1.54-2.17,2.07-.99.53-2.26.8-3.81.8h-3.41v7.64h-3.09v-18.81h6.5c1.44,0,2.67.25,3.67.74,1,.5,1.75,1.17,2.25,2.02s.74,1.79.74,2.84c0,.96-.23,1.86-.68,2.71h0ZM263.63,128.96c.58-.53.87-1.29.87-2.26,0-2.06-1.16-3.09-3.49-3.09h-3.41v6.15h3.41c1.17,0,2.05-.27,2.63-.8h0Z"/>
        <path class="cls-2" d="M273.27,139.2c-1.14-.64-2.03-1.54-2.68-2.71-.65-1.16-.97-2.51-.97-4.05s.34-2.86,1-4.03c.67-1.17,1.58-2.07,2.74-2.71,1.15-.63,2.44-.94,3.87-.94s2.71.32,3.87.94c1.15.63,2.07,1.54,2.74,2.71.67,1.17,1,2.52,1,4.03s-.34,2.86-1.03,4.03-1.62,2.08-2.8,2.72c-1.19.64-2.49.96-3.92.96s-2.68-.32-3.81-.96h0ZM279.31,136.9c.69-.38,1.26-.94,1.69-1.71.44-.76.65-1.68.65-2.76s-.21-2-.62-2.75-.97-1.31-1.65-1.69-1.43-.57-2.22-.57-1.53.19-2.21.57c-.68.38-1.22.94-1.61,1.69-.4.75-.59,1.66-.59,2.75,0,1.61.41,2.85,1.23,3.72.82.87,1.86,1.31,3.1,1.31.8,0,1.54-.19,2.23-.57h0Z"/>
        <path class="cls-2" d="M307.91,124.99l-4.62,14.91h-3.24l-3-11.02-3,11.02h-3.25l-4.66-14.91h3.14l3.11,12,3.17-12h3.22l3.03,11.94,3.09-11.94h3.03-.02Z"/>
        <path class="cls-2" d="M323.78,133.6h-11.39c.09,1.19.53,2.14,1.33,2.87.8.73,1.77,1.08,2.92,1.08,1.66,0,2.83-.69,3.52-2.08h3.33c-.45,1.37-1.27,2.5-2.45,3.37-1.19.87-2.65,1.31-4.4,1.31-1.43,0-2.7-.32-3.83-.96-1.13-.64-2.01-1.54-2.65-2.71s-.96-2.51-.96-4.05.31-2.89.94-4.05c.62-1.16,1.5-2.06,2.63-2.69,1.13-.63,2.43-.94,3.88-.94s2.66.3,3.76.92,1.96,1.47,2.57,2.58c.62,1.11.92,2.39.92,3.83,0,.56-.04,1.07-.11,1.51h0ZM320.67,131.12c-.02-1.14-.42-2.05-1.22-2.74s-1.78-1.03-2.95-1.03c-1.07,0-1.97.34-2.74,1.01s-1.21,1.59-1.36,2.75h8.26Z"/>
        <path class="cls-2" d="M331.8,125.39c.75-.42,1.64-.64,2.67-.64v3.2h-.79c-1.21,0-2.12.3-2.75.92s-.94,1.68-.94,3.2v7.85h-3.09v-14.91h3.09v2.17c.45-.76,1.05-1.35,1.8-1.77h0Z"/>
        <path class="cls-2" d="M347,139.2c-1.14-.64-2.03-1.54-2.68-2.71-.65-1.16-.97-2.51-.97-4.05s.34-2.86,1-4.03c.67-1.17,1.58-2.07,2.74-2.71,1.15-.63,2.44-.94,3.87-.94s2.71.32,3.87.94c1.15.63,2.07,1.54,2.74,2.71.67,1.17,1,2.52,1,4.03s-.34,2.86-1.03,4.03-1.62,2.08-2.8,2.72c-1.19.64-2.49.96-3.92.96s-2.68-.32-3.81-.96h0ZM353.05,136.9c.69-.38,1.26-.94,1.69-1.71.44-.76.65-1.68.65-2.76s-.21-2-.62-2.75-.97-1.31-1.65-1.69-1.43-.57-2.22-.57-1.53.19-2.21.57c-.68.38-1.22.94-1.61,1.69-.4.75-.59,1.66-.59,2.75,0,1.61.41,2.85,1.23,3.72.82.87,1.86,1.31,3.1,1.31.8,0,1.54-.19,2.23-.57h0Z"/>
        <path class="cls-2" d="M367.87,127.51h-2.76v12.4h-3.11v-12.4h-1.76v-2.52h1.76v-1.05c0-1.72.45-2.96,1.36-3.75s2.34-1.18,4.29-1.18v2.57c-.94,0-1.6.18-1.97.53-.38.35-.57.96-.57,1.83v1.05h2.76v2.52Z"/>
        <path class="cls-2" d="M380.73,123.59v5.52h6.5v2.52h-6.5v5.76h7.31v2.52h-10.4v-18.84h10.4v2.52h-7.31Z"/>
        <path class="cls-2" d="M397.59,137.15l4.22-12.15h3.28l-5.69,14.91h-3.68l-5.65-14.91h3.3l4.22,12.15h0Z"/>
        <path class="cls-2" d="M420.98,133.6h-11.39c.09,1.19.53,2.14,1.33,2.87.8.73,1.77,1.08,2.92,1.08,1.66,0,2.83-.69,3.52-2.08h3.33c-.45,1.37-1.27,2.5-2.45,3.37-1.19.87-2.65,1.31-4.4,1.31-1.43,0-2.7-.32-3.83-.96-1.13-.64-2.01-1.54-2.65-2.71s-.96-2.51-.96-4.05.31-2.89.94-4.05c.62-1.16,1.5-2.06,2.63-2.69,1.13-.63,2.43-.94,3.88-.94s2.66.3,3.76.92,1.96,1.47,2.57,2.58c.62,1.11.92,2.39.92,3.83,0,.56-.04,1.07-.11,1.51h0ZM417.87,131.12c-.02-1.14-.42-2.05-1.22-2.74s-1.78-1.03-2.95-1.03c-1.07,0-1.97.34-2.74,1.01s-1.21,1.59-1.36,2.75h8.26Z"/>
        <path class="cls-2" d="M429.01,125.39c.75-.42,1.64-.64,2.67-.64v3.2h-.79c-1.21,0-2.12.3-2.75.92-.62.62-.94,1.68-.94,3.2v7.85h-3.09v-14.91h3.09v2.17c.45-.76,1.05-1.35,1.8-1.77h0Z"/>
        <path class="cls-2" d="M447.94,124.99l-9.15,21.92h-3.2l3.03-7.25-5.87-14.67h3.44l4.2,11.37,4.36-11.37h3.2,0Z"/>
        <path class="cls-2" d="M453.87,127.51v8.26c0,.56.13.96.39,1.2.27.24.71.37,1.34.37h1.9v2.57h-2.43c-1.39,0-2.46-.33-3.2-.97-.74-.65-1.11-1.71-1.11-3.17v-8.26h-1.76v-2.52h1.76v-3.7h3.11v3.7h3.63v2.52h-3.63Z"/>
        <path class="cls-2" d="M471.1,125.48c.9.48,1.6,1.21,2.11,2.17.51.96.77,2.11.77,3.46v8.8h-3.06v-8.34c0-1.33-.34-2.36-1-3.07-.67-.71-1.58-1.07-2.73-1.07s-2.07.36-2.75,1.07c-.68.71-1.01,1.74-1.01,3.07v8.34h-3.09v-20.03h3.09v6.85c.52-.63,1.19-1.12,1.99-1.46s1.68-.51,2.64-.51c1.14,0,2.15.24,3.04.73h0Z"/>
        <path class="cls-2" d="M478.07,122.45c-.38-.38-.57-.85-.57-1.4s.19-1.03.57-1.4c.38-.38.85-.57,1.4-.57s1,.19,1.38.57c.38.38.57.85.57,1.4s-.19,1.03-.57,1.4c-.38.38-.84.57-1.38.57s-1.03-.19-1.4-.57ZM480.99,124.99v14.91h-3.09v-14.91h3.09Z"/>
        <path class="cls-2" d="M495.73,125.48c.93.48,1.65,1.21,2.18,2.17s.79,2.11.79,3.46v8.8h-3.06v-8.34c0-1.33-.34-2.36-1-3.07-.67-.71-1.58-1.07-2.73-1.07s-2.07.36-2.75,1.07c-.68.71-1.01,1.74-1.01,3.07v8.34h-3.09v-14.91h3.09v1.71c.51-.62,1.15-1.09,1.93-1.44s1.62-.51,2.5-.51c1.17,0,2.22.24,3.15.73h0Z"/>
        <path class="cls-2" d="M511.7,125.45c.9.46,1.59,1.03,2.1,1.72v-2.17h3.11v15.16c0,1.37-.29,2.6-.87,3.67-.58,1.08-1.41,1.92-2.5,2.53s-2.39.92-3.92.92c-2.02,0-3.7-.48-5.04-1.42-1.33-.94-2.09-2.23-2.28-3.86h3.06c.23.77.73,1.4,1.51,1.88.76.48,1.68.72,2.75.72,1.25,0,2.25-.38,3.02-1.14s1.15-1.86,1.15-3.3v-2.49c-.52.7-1.23,1.29-2.12,1.77-.89.48-1.91.72-3.04.72-1.3,0-2.49-.33-3.56-.99-1.08-.66-1.92-1.58-2.54-2.76-.62-1.19-.94-2.52-.94-4.02s.31-2.82.94-3.98c.62-1.15,1.47-2.05,2.54-2.69,1.08-.64,2.26-.96,3.56-.96,1.15,0,2.18.23,3.07.69h0ZM513.16,129.76c-.42-.76-.98-1.33-1.66-1.73s-1.43-.59-2.22-.59-1.54.19-2.22.58-1.24.96-1.66,1.71-.64,1.64-.64,2.67.21,1.93.64,2.71c.42.78.98,1.36,1.68,1.77s1.43.61,2.21.61,1.54-.19,2.22-.59,1.24-.97,1.66-1.75c.42-.76.64-1.66.64-2.69s-.21-1.92-.64-2.68h0Z"/>
      </g>
      <g>
        <path class="cls-2" d="M243.33,30.86v8.89h-17.69v57.57h-10.9v-57.57h-17.79v-8.89h46.38Z"/>
        <path class="cls-2" d="M267.57,93.64c-5.2-2.9-9.31-6.95-12.34-12.14-3.03-5.2-4.54-11.05-4.54-17.55s1.51-12.34,4.54-17.5c3.03-5.16,7.14-9.19,12.34-12.1,5.19-2.9,10.88-4.35,17.07-4.35s11.97,1.45,17.16,4.35c5.2,2.9,9.29,6.93,12.29,12.1,3,5.16,4.49,11,4.49,17.5s-1.5,12.35-4.49,17.55c-3,5.2-7.09,9.24-12.29,12.14-5.2,2.9-10.92,4.35-17.16,4.35s-11.87-1.45-17.07-4.35ZM296.4,85.51c3.44-2.01,6.14-4.88,8.08-8.61,1.94-3.73,2.92-8.05,2.92-12.96s-.97-9.21-2.92-12.91c-1.94-3.7-4.64-6.53-8.08-8.51-3.44-1.98-7.36-2.96-11.76-2.96s-8.32.99-11.76,2.96c-3.44,1.98-6.14,4.81-8.08,8.51-1.95,3.7-2.92,8-2.92,12.91s.97,9.23,2.92,12.96c1.94,3.73,4.64,6.6,8.08,8.61,3.44,2.01,7.36,3.01,11.76,3.01s8.32-1,11.76-3.01Z"/>
        <path class="cls-2" d="M369.6,34.93c5.32,2.71,9.43,6.6,12.34,11.67,2.9,5.07,4.35,10.98,4.35,17.74s-1.45,12.62-4.35,17.59c-2.9,4.97-7.01,8.78-12.34,11.43-5.32,2.65-11.52,3.97-18.6,3.97h-21.71V30.86h21.71c7.08,0,13.28,1.35,18.6,4.06ZM368.89,82.12c4.14-4.21,6.22-10.14,6.22-17.79s-2.07-13.74-6.22-18.07c-4.14-4.33-10.1-6.5-17.88-6.5h-10.81v48.67h10.81c7.78,0,13.74-2.1,17.88-6.31Z"/>
        <path class="cls-2" d="M410.34,93.64c-5.2-2.9-9.31-6.95-12.34-12.14-3.03-5.2-4.54-11.05-4.54-17.55s1.51-12.34,4.54-17.5c3.03-5.16,7.14-9.19,12.34-12.1,5.19-2.9,10.88-4.35,17.07-4.35s11.97,1.45,17.16,4.35c5.2,2.9,9.29,6.93,12.29,12.1,3,5.16,4.49,11,4.49,17.5s-1.5,12.35-4.49,17.55c-3,5.2-7.09,9.24-12.29,12.14-5.2,2.9-10.92,4.35-17.16,4.35s-11.87-1.45-17.07-4.35ZM439.17,85.51c3.44-2.01,6.13-4.88,8.08-8.61,1.94-3.73,2.92-8.05,2.92-12.96s-.97-9.21-2.92-12.91c-1.95-3.7-4.64-6.53-8.08-8.51-3.44-1.98-7.36-2.96-11.76-2.96s-8.32.99-11.76,2.96c-3.44,1.98-6.14,4.81-8.08,8.51-1.95,3.7-2.92,8-2.92,12.91s.97,9.23,2.92,12.96c1.94,3.73,4.64,6.6,8.08,8.61,3.44,2.01,7.36,3.01,11.76,3.01s8.32-1,11.76-3.01Z"/>
        <path class="cls-2" d="M481.91,95.65c-3.57-1.56-6.37-3.78-8.41-6.65-2.04-2.87-3.06-6.22-3.06-10.04h11.67c.25,2.87,1.39,5.23,3.39,7.08,2.01,1.85,4.83,2.77,8.46,2.77s6.69-.91,8.8-2.73c2.1-1.82,3.16-4.16,3.16-7.03,0-2.23-.65-4.05-1.96-5.45-1.31-1.4-2.93-2.49-4.88-3.25-1.94-.76-4.64-1.59-8.08-2.49-4.34-1.15-7.86-2.31-10.57-3.49-2.71-1.18-5.02-3.01-6.93-5.5-1.91-2.49-2.87-5.8-2.87-9.95,0-3.82.96-7.17,2.87-10.04,1.91-2.87,4.59-5.07,8.03-6.6s7.43-2.29,11.95-2.29c6.44,0,11.71,1.61,15.83,4.83,4.11,3.22,6.39,7.64,6.84,13.24h-12.05c-.19-2.42-1.34-4.49-3.44-6.22-2.1-1.72-4.88-2.58-8.32-2.58-3.12,0-5.67.8-7.65,2.39-1.98,1.59-2.96,3.89-2.96,6.88,0,2.04.62,3.71,1.86,5.02,1.24,1.31,2.82,2.34,4.73,3.11,1.91.77,4.53,1.59,7.84,2.49,4.4,1.21,7.98,2.42,10.76,3.63,2.77,1.21,5.13,3.08,7.08,5.59,1.94,2.52,2.92,5.88,2.92,10.09,0,3.38-.91,6.57-2.73,9.56-1.82,3-4.46,5.4-7.94,7.22-3.48,1.82-7.57,2.73-12.29,2.73-4.46,0-8.48-.78-12.05-2.34Z"/>
      </g>
    </g>
  </g>
</svg>